<svg xmlns="http://www.w3.org/2000/svg" width="259" height="169" viewBox="0 0 259 169" version="1.1">
	<path d="M 158 84.500 L 158 116 165 116 L 172 116 172.052 94.750 C 172.102 74.495, 172.184 73.610, 173.802 75.860 C 174.736 77.158, 180.973 86.608, 187.661 96.860 L 199.822 115.500 207.411 115.792 L 215 116.084 215 84.496 L 215 52.909 208.250 53.204 L 201.500 53.500 201.500 73.751 C 201.500 84.889, 201.275 93.983, 201 93.959 C 200.725 93.936, 197.976 89.998, 194.892 85.208 C 191.807 80.419, 185.857 71.213, 181.669 64.750 L 174.055 53 166.027 53 L 158 53 158 84.500" stroke="none" fill="#009D45" fill-rule="evenodd"/>
</svg>