<svg xmlns="http://www.w3.org/2000/svg" width="259" height="169" viewBox="0 0 259 169" version="1.1">
	<path d="M 1.994 0.750 C 1.991 0.887, 1.986 38.579, 1.983 84.508 L 1.977 168.016 125.238 168.017 L 248.500 168.017 248.772 149.009 L 249.043 130 241.522 130 L 234 130 234 142 L 234 154 125 154 L 16 154 16 84.500 L 16 15 125 15 L 234 15 234 27 L 234 39 241.522 39 L 249.043 39 248.772 19.991 L 248.500 0.983 125.250 0.741 C 57.462 0.609, 1.997 0.613, 1.994 0.750 M 88.076 110.250 C 88.017 114.728, 88.332 116, 89.500 116 C 91.344 116, 91.344 112.788, 89.500 108 L 88.152 104.500 88.076 110.250" stroke="none" fill="#009D45" fill-rule="evenodd"/>
</svg>