<svg xmlns="http://www.w3.org/2000/svg" width="259" height="169" viewBox="0 0 259 169" version="1.1">
	<path d="M 92 53.619 C 92 54.005, 96.275 62.606, 101.500 72.732 L 111 91.142 111 103.571 L 111 116 118 116 L 125 116 125 103.895 L 125 91.791 134.500 72.949 C 139.725 62.585, 144 53.857, 144 53.553 C 144 53.249, 140.618 53, 136.484 53 C 127.862 53, 129.556 51.114, 122.121 68.987 L 118.174 78.475 116.562 74.487 C 115.676 72.294, 113.260 66.675, 111.193 62 L 107.435 53.500 99.718 53.208 C 95.473 53.047, 92 53.232, 92 53.619" stroke="none" fill="#009D45" fill-rule="evenodd"/>
</svg>