<svg xmlns="http://www.w3.org/2000/svg" width="259" height="169" viewBox="0 0 259 169" version="1.1">
	<path d="M 51.458 56.447 C 49.655 60.762, 30 114.885, 30 115.535 C 30 115.791, 33.518 116, 37.817 116 L 45.635 116 47.430 110.250 C 50.027 101.929, 49.910 102, 61 102 C 72.109 102, 72.027 101.949, 74.407 110.250 L 76.056 116 82.028 116 L 88 116 87.990 109.750 C 87.981 104.437, 86.644 99.752, 79.074 78.500 L 70.168 53.500 61.549 53.211 L 52.931 52.921 51.458 56.447 M 56.778 78.750 L 53.253 90.500 60.247 90.796 C 64.094 90.959, 67.447 90.887, 67.698 90.635 C 68.300 90.033, 61.678 67.010, 60.901 67.004 C 60.572 67.002, 58.717 72.287, 56.778 78.750" stroke="none" fill="#009D45" fill-rule="evenodd"/>
</svg>