<svg xmlns="http://www.w3.org/2000/svg" width="259" height="169" viewBox="0 0 259 169" version="1.1">
	<path d="M 229.200 58.750 C 229.460 63.733, 229.767 64.500, 231.500 64.500 C 233.425 64.500, 233.510 65.257, 233.771 84.750 L 234.041 105 231.521 105 C 229.132 105, 229 105.288, 229 110.500 L 229 116 241.500 116 L 254 116 254 110.500 C 254 105.288, 253.868 105, 251.479 105 L 248.959 105 249.229 84.750 C 249.490 65.257, 249.575 64.500, 251.500 64.500 C 253.233 64.500, 253.540 63.733, 253.800 58.750 L 254.100 53 241.500 53 L 228.900 53 229.200 58.750" stroke="none" fill="#009D45" fill-rule="evenodd"/>
</svg>